<?xml version="1.0" encoding="UTF-8" standalone="no"?>
<svg
   xmlns:svg="http://www.w3.org/2000/svg"
   xmlns="http://www.w3.org/2000/svg"
   version="1.1"
   width="668.7749"
   height="148.60234"
   id="svg3707">
  <defs
     id="defs3709" />
  <g
     transform="translate(-88.47039,-475.20387)"
     id="layer1">
    <path
       d="m 292.18873,531.36522 -0.005,-0.14214 -0.13568,-3.26602 m 0.14214,3.40816 0,0 -0.005,-0.14214 0.005,0.14214 z m -0.14008,-3.4101 -0.003,0 0.13568,3.26925 -0.13232,-3.26925 z m -9.75058,-52.75125 c -1.06606,0 -1.9383,0.869 -1.9383,1.93829 l -0.40381,8.72231 6.94555,0 -0.40381,-8.72231 c 0,-1.06929 -0.869,-1.93829 -1.93829,-1.93829 l -2.26134,0 z m -158.9399,5.9764 -3.06896,36.66601 c -3.73767,-6.20253 -10.16634,-12.35661 -18.9791,-12.35661 -7.090916,0 -12.84118,3.98965 -12.84118,11.14518 l 0,85.04253 5.65335,0 c 10.61214,0 20.44897,-5.03956 25.76312,-10.09527 l 0,14.69871 -13.32575,0 -5.49183,10.41832 2.58439,0 5.65335,-3.95734 7.43012,0 -2.66515,2.82667 -0.88839,8.23774 2.26134,0 10.17603,-11.06441 16.15243,0 3.47277,3.95734 2.26134,0 -2.74591,-10.41832 -13.24499,0 7.18783,-7.75316 26.57074,0 7.10707,7.75316 -13.24499,0 -2.74591,10.41832 2.26134,0 3.55353,-3.95734 16.07167,0 10.17603,11.06441 2.26134,0 -0.88838,-8.23774 -2.66516,-2.82667 7.43012,0 5.73411,3.95734 2.50363,0 -5.49183,-10.41832 -13.16422,0 0,-14.69871 c 5.30122,5.0331 15.06698,10.09527 25.68236,10.09527 l 5.73411,0 0,-85.04253 c 0,-7.15553 -5.74381,-11.14518 -12.84118,-11.14518 -8.90322,0 -15.31896,6.27038 -19.05987,12.51814 l -3.87658,-36.82754 -14.13337,0 c 0,0 -4.46131,6.26391 -5.81488,8.15698 l -16.23319,0 c -1.34388,-1.89307 -5.73411,-8.15698 -5.73411,-8.15698 l -14.53719,0 z m 148.19853,8.15698 c -5.4046,0 -11.6879,2.71683 -14.13337,3.87658 -8.21836,3.90566 -8.98075,6.58696 -9.04536,7.91469 l 15.3448,0 c 6.03778,0 9.12289,-0.63964 14.77947,-4.92649 l 23.58255,0 c 7.81777,0 14.21414,6.3156 14.21414,14.13337 0,7.81778 -6.39637,14.21414 -14.21414,14.21414 l -10.17603,0 0.24216,6.78402 9.93374,0 c 11.58452,0 20.99816,-9.4201 20.99816,-20.99816 0,-11.58129 -9.41364,-20.99815 -20.99816,-20.99815 l -23.09797,0 -7.43012,0 z m -1.85753,3.63429 c 1.36973,0 2.42287,1.05314 2.42287,2.42287 0,1.36649 -1.05314,2.50362 -2.42287,2.50362 -1.36972,0 -2.50362,-1.13713 -2.50362,-2.50362 0,-1.36973 1.1339,-2.42287 2.50362,-2.42287 z m -130.67314,4.2804 c 6.36083,0 11.46822,5.19785 11.46822,11.54898 0,6.34468 -5.10739,11.46823 -11.46822,11.46823 -6.3479,0 -11.46822,-5.12355 -11.46822,-11.46823 0,-6.35113 5.12032,-11.54898 11.46822,-11.54898 z m 25.6016,0 c 6.35113,0 11.54898,5.19785 11.54898,11.54898 0,6.34468 -5.19785,11.46823 -11.54898,11.46823 -6.35114,0 -11.46823,-5.12355 -11.46823,-11.46823 0,-6.35113 5.11709,-11.54898 11.46823,-11.54898 z m 115.00528,2.3421 c -5.15908,3.20141 -9.39102,3.47277 -15.91014,3.47277 l -15.02175,0 c 1.13713,2.65869 5.17846,2.94943 7.51087,3.14972 2.45194,0.21322 5.21724,0.24216 7.10707,0.24216 l 15.66786,0 23.09797,0 c 2.17735,0 3.95734,1.69924 3.95734,3.87658 0,2.17735 -1.77999,3.95735 -3.95734,3.95735 l -10.57984,0 0.24216,6.86478 10.33755,0 c 5.93763,0 10.82213,-4.88449 10.82213,-10.82213 0,-5.9344 -4.8845,-10.74136 -10.82213,-10.74136 l -22.45187,0 z m -140.60688,0.48457 c -4.81019,0 -8.72231,3.90889 -8.72231,8.72231 0,4.81343 3.91212,8.72231 8.72231,8.72231 4.82311,0 8.72231,-3.90888 8.72231,-8.72231 0,-4.81342 -3.8992,-8.72231 -8.72231,-8.72231 z m 25.6016,0 c -4.8102,0 -8.72231,3.90889 -8.72231,8.72231 0,4.81343 3.91211,8.72231 8.72231,8.72231 4.82957,0 8.80307,-3.90888 8.80307,-8.72231 0,-4.81342 -3.9735,-8.72231 -8.80307,-8.72231 z m -25.6016,3.71506 c 2.78145,0 5.00725,2.22257 5.00725,5.00725 0,2.77176 -2.2258,5.00725 -5.00725,5.00725 -2.7653,0 -5.00725,-2.23549 -5.00725,-5.00725 0,-2.78468 2.24195,-5.00725 5.00725,-5.00725 z m 25.6016,0 c 2.78791,0 5.08801,2.22257 5.08801,5.00725 0,2.77176 -2.3001,5.00725 -5.08801,5.00725 -2.7653,0 -5.00725,-2.23549 -5.00725,-5.00725 0,-2.78468 2.24195,-5.00725 5.00725,-5.00725 z m 114.35919,6.13792 -1.13067,25.76312 11.06441,0 -1.04991,-25.76312 -8.88383,0 z m -26.73227,4.36116 c -11.57806,0 -20.99816,9.42009 -20.99816,20.99815 0,11.57806 9.4201,20.99816 20.99816,20.99816 l 62.34837,0 c 2.17412,0 3.95735,1.78646 3.95735,3.95734 0,2.17735 -1.78323,3.95735 -3.95735,3.95735 l -22.12883,0 -0.32304,6.78402 22.45187,0 c 5.9344,0 10.74137,-4.80373 10.74137,-10.74137 0,-5.9344 -4.80697,-10.74136 -10.74137,-10.74136 l -62.34837,0 c -7.81778,0 -14.21414,-6.39959 -14.21414,-14.21414 0,-7.81777 6.39636,-14.13337 14.21414,-14.13337 l 22.85568,0 0.24216,-6.86478 -23.09797,0 z m -147.22938,1.13067 c 0.83346,0 1.53448,0.68486 1.53448,1.53448 l 0,68.40553 c 0,2.22257 -1.77677,4.03811 -3.95735,4.03811 -2.16765,0 -3.95734,-1.81554 -3.95734,-4.03811 l 0,-67.35562 c 0,-0.81409 0.713937,-1.53449 1.53448,-1.53449 0.84316,0 1.45372,0.7204 1.45372,1.53449 l 0,52.49539 c 0,0.57502 0.46196,1.0499 0.96914,1.0499 0.50073,0 0.88839,-0.47488 0.88839,-1.0499 l 0,-53.5453 c 0,-0.84962 0.70424,-1.53448 1.53448,-1.53448 z m 93.92637,0 c 0.83669,0 1.53448,0.68809 1.53448,1.53448 l 0,53.5453 c 0,0.57502 0.3812,1.0499 0.88838,1.0499 0.51365,0 0.96915,-0.47488 0.96915,-1.0499 l 0,-52.49539 c 0,-0.82055 0.62994,-1.53449 1.45372,-1.53449 0.83023,0 1.53448,0.71394 1.53448,1.53449 l 0,67.27486 c 0,2.23226 -1.77354,4.11887 -3.95735,4.11887 -2.15473,0 -3.87658,-1.88661 -3.87658,-4.11887 l 0,-68.32477 c 0,-0.84639 0.61379,-1.53448 1.45372,-1.53448 z m -47.16509,3.14972 3.95734,2.90744 -3.95734,8.72231 -3.87659,-8.72231 3.87659,-2.90744 z m -38.28126,3.39201 c 0.83024,0 1.45372,0.70425 1.45372,1.53448 l 0,47.81119 c 0,0.58795 0.4555,1.04991 0.96915,1.04991 0.50718,0 0.88838,-0.46196 0.88838,-1.04991 l 0,-41.43098 c 0,-0.81731 0.69779,-1.45372 1.53448,-1.45372 0.83024,0 1.45372,0.63641 1.45372,1.45372 l 0,49.50719 c 0,2.24519 -1.70893,4.11887 -3.87658,4.11887 -2.17089,0 -3.95735,-1.87368 -3.95735,-4.11887 l 0,-55.8874 c 0,-0.83023 0.6881,-1.53448 1.53448,-1.53448 z m 77.04708,0 c 0.83024,0 1.45372,0.70425 1.45372,1.53448 l 0,55.8874 c 0,2.23873 -1.70246,4.03811 -3.87658,4.03811 -2.17089,0 -3.95734,-1.79938 -3.95734,-4.03811 l 0,-49.50719 c 0,-0.82054 0.69132,-1.45372 1.53448,-1.45372 0.83023,0 1.45371,0.63318 1.45371,1.45372 l 0,41.43098 c 0,0.57502 0.44581,1.04991 0.96915,1.04991 0.50719,0 0.88838,-0.47489 0.88838,-1.04991 l 0,-47.81119 c 0,-0.83023 0.70748,-1.53448 1.53448,-1.53448 z m 61.70228,2.58439 c -5.9344,0 -10.74137,4.80373 -10.74137,10.74136 0,5.93441 4.80697,10.82213 10.74137,10.82213 l 62.34837,0 c 7.81455,0 14.13338,6.31883 14.13338,14.13337 0,7.81455 -6.31883,14.21414 -14.13338,14.21414 l -22.53264,0 -0.32304,6.78402 22.85568,0 c 11.57483,0 20.99816,-9.4201 20.99816,-20.99816 0,-11.57806 -9.42333,-20.99815 -20.99816,-20.99815 l -62.34837,0 c -2.17089,0 -3.95735,-1.78323 -3.95735,-3.95735 0,-2.17734 1.78646,-3.95734 3.95735,-3.95734 l 22.37111,0 0.32305,-6.78402 -22.69416,0 z m -123.24303,11.9528 c 0.83347,0 1.45372,0.69455 1.45372,1.53448 l 0,9.77222 c 0,0.5944 0.45227,1.0499 0.96915,1.0499 0.50072,0 0.88838,-0.4555 0.88838,-1.0499 l 0,-9.77222 c 0,-0.83993 0.70425,-1.53448 1.53448,-1.53448 0.8367,0 1.45372,0.69455 1.45372,1.53448 l 0,17.60614 c 0,2.24519 -1.70246,4.11887 -3.87658,4.11887 -2.17735,0 -3.95735,-1.87368 -3.95735,-4.11887 l 0,-17.60614 c 0,-0.83993 0.70425,-1.53448 1.53448,-1.53448 z m 40.5426,0 c 0.83346,0 1.45372,0.69455 1.45372,1.53448 l 0,9.77222 c 0,0.5944 0.43934,1.0499 0.96914,1.0499 0.50073,0 0.96915,-0.4555 0.96915,-1.0499 l 0,-9.77222 c 0,-0.83993 0.60087,-1.53448 1.45372,-1.53448 0.827,0 1.53448,0.69455 1.53448,1.53448 l 0,17.60614 c 0,2.24519 -1.79615,4.11887 -3.95735,4.11887 -2.18058,0 -3.95734,-1.87368 -3.95734,-4.11887 l 0,-17.60614 c 0,-0.83993 0.70747,-1.53448 1.53448,-1.53448 z m -27.2976,4.0381 c 0.83023,0 1.53448,0.70425 1.53448,1.53448 l 0,9.77222 c 0,0.58795 0.38442,1.04991 0.88838,1.04991 0.50719,0 0.96914,-0.46196 0.96914,-1.04991 l 0,-9.77222 c 0,-0.83023 0.61057,-1.53448 1.45372,-1.53448 0.83024,0 1.53448,0.70425 1.53448,1.53448 l 0,17.60615 c 0,2.23227 -1.78322,4.11887 -3.95734,4.11887 -2.17089,0 -3.87658,-1.8866 -3.87658,-4.11887 l 0,-17.60615 c 0,-0.83023 0.63317,-1.53448 1.45372,-1.53448 z m 13.97185,0 c 0.84638,0 1.53448,0.70425 1.53448,1.53448 l 0,9.77222 c 0,0.58795 0.46519,1.04991 0.96914,1.04991 0.51042,0 0.88839,-0.46196 0.88839,-1.04991 l 0,-9.77222 c 0,-0.83023 0.7107,-1.53448 1.53448,-1.53448 0.83669,0 1.45371,0.70425 1.45371,1.53448 l 0,17.60615 c 0,2.23227 -1.71215,4.11887 -3.87658,4.11887 -2.18058,0 -3.95734,-1.8866 -3.95734,-4.11887 l 0,-17.60615 c 0,-0.83023 0.62671,-1.53448 1.45372,-1.53448 z m 121.38549,19.14063 1.04991,26.08617 9.44917,0 1.13067,-26.08617 -11.62975,0 z m -12.92194,4.52268 c -11.57806,0 -20.99816,9.4201 -20.99816,20.99816 0,11.96571 9.69792,20.99815 22.53264,20.99815 l 24.14788,0 c 0,0 7.39135,0.0323 12.27584,2.18058 0.20676,0.0936 0.67518,0.24216 0.88839,0.24216 0.34566,-0.003 1.34388,-0.37797 0,-1.85753 -3.03666,-3.32417 -9.75284,-7.43012 -15.99091,-7.43012 l -22.85568,0 c -7.81132,0 -14.13338,-6.31883 -14.13338,-14.13337 0,-7.81778 6.31883,-14.21414 14.13338,-14.21414 l 9.93374,0 -0.24216,-6.78402 -9.69145,0 z m -135.6804,0.24216 c 0.83347,0 1.45372,0.69455 1.45372,1.53448 l 0,9.77222 c 0,0.57825 0.45227,1.0499 0.96915,1.0499 0.50072,0 0.88838,-0.47165 0.88838,-1.0499 l 0,-9.77222 c 0,-0.83993 0.70425,-1.53448 1.53448,-1.53448 0.8367,0 1.45372,0.69455 1.45372,1.53448 l 0,17.68691 c 0,2.24195 -1.70246,4.0381 -3.87658,4.0381 -2.17735,0 -3.95735,-1.79615 -3.95735,-4.0381 l 0,-17.68691 c 0,-0.83993 0.70425,-1.53448 1.53448,-1.53448 z m 40.5426,0 c 0.83346,0 1.45372,0.69455 1.45372,1.53448 l 0,9.77222 c 0,0.57825 0.43934,1.0499 0.96914,1.0499 0.50073,0 0.96915,-0.47165 0.96915,-1.0499 l 0,-9.77222 c 0,-0.83993 0.60087,-1.53448 1.45372,-1.53448 0.827,0 1.53448,0.69455 1.53448,1.53448 l 0,17.68691 c 0,2.24195 -1.79615,4.0381 -3.95735,4.0381 -2.18058,0 -3.95734,-1.79615 -3.95734,-4.0381 l 0,-17.68691 c 0,-0.83993 0.70747,-1.53448 1.53448,-1.53448 z m -27.2976,4.0381 c 0.83023,0 1.53448,0.69456 1.53448,1.53448 l 0,9.77222 c 0,0.5718 0.38442,1.04991 0.88838,1.04991 0.50719,0 0.96914,-0.47811 0.96914,-1.04991 l 0,-9.77222 c 0,-0.83992 0.61057,-1.53448 1.45372,-1.53448 0.83024,0 1.53448,0.69456 1.53448,1.53448 l 0,17.68691 c 0,2.24196 -1.78322,4.03811 -3.95734,4.03811 -2.17089,0 -3.87658,-1.79615 -3.87658,-4.03811 l 0,-17.68691 c 0,-0.83992 0.63317,-1.53448 1.45372,-1.53448 z m 13.97185,0 c 0.84638,0 1.53448,0.69456 1.53448,1.53448 l 0,9.77222 c 0,0.5718 0.46519,1.04991 0.96914,1.04991 0.51042,0 0.88839,-0.47811 0.88839,-1.04991 l 0,-9.77222 c 0,-0.83992 0.7107,-1.53448 1.53448,-1.53448 0.83669,0 1.45371,0.69456 1.45371,1.53448 l 0,17.68691 c 0,2.24196 -1.71215,4.03811 -3.87658,4.03811 -2.18058,0 -3.95734,-1.79615 -3.95734,-4.03811 l 0,-17.68691 c 0,-0.83992 0.62671,-1.53448 1.45372,-1.53448 z m 108.46355,5.9764 c -5.93763,0 -10.74137,4.80373 -10.74137,10.74137 0,5.93763 4.80374,10.74136 10.74137,10.74136 l 22.37111,0.0806 c 16.35918,0 25.92465,15.00238 25.92465,22.69417 0,0.9433 0.83346,1.696 1.77677,1.696 0.94007,0 1.696,-0.7527 1.696,-1.696 0,-16.63377 -10.04358,-29.55895 -29.72047,-29.55895 l -20.51358,0 c -3.33709,0 -5.49183,-1.56355 -5.49183,-3.95734 0,-2.17412 1.78,-3.95735 3.95735,-3.95735 l 10.41831,0 -0.32304,-6.78402 -10.09527,0 z m 15.26404,35.29306 0.40381,8.56078 c 0,1.06929 0.869,1.9383 1.9383,1.9383 l 2.26134,0 c 1.06606,0 1.93829,-0.86901 1.93829,-1.9383 l 0.40381,-8.56078 -6.94555,0 z m 379.1285,-14.67967 c 0,-3.1691 -0.83993,-4.89418 -3.68275,-4.89418 -1.25666,0 -4.05426,0.32628 -4.05426,3.82166 0,2.93651 3.07542,3.49539 6.15084,4.52268 3.03343,1.02407 6.10885,2.09659 6.10885,7.03923 0,5.26569 -3.40493,7.8307 -8.06652,7.8307 -8.48003,0 -8.57371,-6.29299 -8.57371,-8.85799 l 3.91535,0 c 0,3.03019 0.83992,5.77934 4.65836,5.77934 1.26312,0 4.15117,-0.60734 4.15117,-4.14795 0,-3.35647 -3.07865,-4.05426 -6.10885,-5.08155 -3.02696,-1.02407 -6.15084,-1.90922 -6.15084,-7.08446 0,-4.66159 3.63429,-6.89708 7.96961,-6.89708 7.27182,0 7.55287,5.03309 7.5981,7.9696 l -3.91535,0 z m -20.97296,2.56307 0,-1.35034 c 0,-2.7976 -0.88515,-6.10885 -4.33531,-6.10885 -4.10272,0 -4.56791,5.03633 -4.56791,6.52558 l 0,0.93361 8.90322,0 z m -9.04536,3.07865 c 0,3.82167 0,9.59778 4.80373,9.59778 3.72798,0 4.24163,-3.91212 4.24163,-5.77611 l 3.91535,0 c 0,2.65546 -1.58617,8.85476 -8.38957,8.85476 -6.10562,0 -8.67062,-4.24163 -8.67062,-12.81857 0,-6.24453 1.21143,-13.47112 8.90321,-13.47112 7.64333,0 8.34435,6.66449 8.34435,12.0271 l 0,1.58616 -13.14808,0 z m -18.50357,9.32158 c 4.33531,0 5.03632,-4.10271 5.03632,-9.78837 0,-4.84896 -0.83992,-9.78837 -5.03632,-9.78837 -3.6343,0 -4.56468,3.82167 -4.56468,9.78837 0,5.96671 0.93038,9.78837 4.56468,9.78837 m 8.71908,2.70392 -3.73121,0 0,-3.07542 -0.0936,0 c -0.51042,1.86399 -2.70068,3.72798 -5.4046,3.72798 -5.92148,0 -8.16021,-5.26892 -8.16021,-13.14485 0,-5.22046 0.84316,-13.14484 7.87916,-13.14484 2.23872,0 4.61636,1.35357 5.50151,3.49538 l 0.0936,0 0,-11.13871 3.91535,0 0,33.28046 z m -39.90007,-24.98491 3.72798,0 0,2.93651 0.0936,0 c 1.02729,-2.28395 3.6343,-3.58907 6.06042,-3.58907 6.57401,0 6.57401,4.98787 6.57401,7.92438 l 0,17.71275 -3.91856,0 0,-17.24756 c 0,-1.90922 -0.13904,-5.03309 -3.68277,-5.03309 -2.09336,0 -4.93616,1.3988 -4.93616,5.03309 l 0,17.24756 -3.91861,0 0,-24.98457 z m -11.09217,11.37229 c -1.44405,1.53771 -4.89095,1.86722 -6.66449,2.93974 -1.25991,0.78824 -1.91247,1.77031 -1.91247,3.96058 0,2.51655 0.88515,4.28685 3.54384,4.28685 2.5618,0 5.03312,-2.19027 5.03312,-4.75204 l 0,-6.43513 z m -12.07235,-3.82166 c 0,-5.68566 2.42287,-8.20221 8.3896,-8.20221 7.60131,0 7.60131,4.56791 7.60131,7.17814 l 0,13.93632 c 0,1.02406 0,2.0029 1.20822,2.0029 0.51363,0 0.74622,-0.0905 0.93359,-0.2326 l 0,2.7976 c -0.28105,0.0452 -1.30512,0.2326 -2.28395,0.2326 -1.49249,0 -3.35648,0 -3.54385,-3.21434 l -0.0936,0 c -1.25663,2.2355 -3.68273,3.58907 -6.01191,3.58907 -4.66162,0 -6.8034,-2.80083 -6.8034,-7.27505 0,-3.49215 1.48925,-5.91825 4.70682,-6.89709 l 5.26566,-1.58616 c 2.84283,-0.88516 2.84283,-1.67663 2.84283,-3.77321 0,-2.33241 -1.3988,-3.68276 -4.00903,-3.68276 -4.28686,0 -4.28686,4.00904 -4.28686,4.89419 l 0,0.2326 -3.91535,0 z m -9.60066,-15.84877 3.91858,0 0,33.28047 -3.91858,0 0,-33.28047 z m -15.89301,8.29814 3.91855,0 0,3.72798 0.0871,0 c 1.12097,-2.37764 2.61346,-4.38054 5.40783,-4.38054 0.7947,0 1.35357,0.0904 1.7251,0.28105 l 0,3.82167 c -0.37153,-0.0483 -0.83672,-0.18737 -2.09658,-0.18737 -1.95768,0 -5.12358,1.77354 -5.12358,5.91825 l 0,15.80353 -3.91855,0 0,-24.98457 z m -11.09253,11.37229 c -1.44403,1.53771 -4.89096,1.86722 -6.66449,2.93974 -1.25989,0.78824 -1.91245,1.77031 -1.91245,3.96058 0,2.51655 0.88515,4.28685 3.54384,4.28685 2.56178,0 5.0331,-2.19027 5.0331,-4.75204 l 0,-6.43513 z m -12.07233,-3.82166 c 0,-5.68566 2.42287,-8.20221 8.38957,-8.20221 7.60134,0 7.60134,4.56791 7.60134,7.17814 l 0,13.93632 c 0,1.02406 0,2.0029 1.2082,2.0029 0.51365,0 0.74624,-0.0905 0.93361,-0.2326 l 0,2.7976 c -0.28105,0.0452 -1.30512,0.2326 -2.28395,0.2326 -1.49249,0 -3.35648,0 -3.54385,-3.21434 l -0.0935,0 c -1.25666,2.2355 -3.68276,3.58907 -6.01194,3.58907 -4.66159,0 -6.8034,-2.80083 -6.8034,-7.27505 0,-3.49215 1.48926,-5.91825 4.70682,-6.89709 l 5.26569,-1.58616 c 2.84283,-0.88516 2.84283,-1.67663 2.84283,-3.77321 0,-2.33241 -1.3988,-3.68276 -4.00903,-3.68276 -4.28686,0 -4.28686,4.00904 -4.28686,4.89419 l 0,0.2326 -3.91535,0 z m -10.48486,3.82166 c -1.44726,1.53771 -4.89419,1.86722 -6.66772,2.93974 -1.25666,0.78824 -1.90922,1.77031 -1.90922,3.96058 0,2.51655 0.88515,4.28685 3.54061,4.28685 2.56501,0 5.03633,-2.19027 5.03633,-4.75204 l 0,-6.43513 z m -12.07233,-3.82166 c 0,-5.68566 2.42287,-8.20221 8.38958,-8.20221 7.5981,0 7.5981,4.56791 7.5981,7.17814 l 0,13.93632 c 0,1.02406 0,2.0029 1.21143,2.0029 0.51365,0 0.74301,-0.0905 0.93361,-0.2326 l 0,2.7976 c -0.28105,0.0452 -1.30512,0.2326 -2.28718,0.2326 -1.49249,0 -3.35648,0 -3.54062,-3.21434 l -0.0936,0 c -1.25989,2.2355 -3.68275,3.58907 -6.01193,3.58907 -4.66159,0 -6.80341,-2.80083 -6.80341,-7.27505 0,-3.49215 1.48926,-5.91825 4.70682,-6.89709 l 5.26569,-1.58616 c 2.84283,-0.88516 2.84283,-1.67663 2.84283,-3.77321 0,-2.33241 -1.3988,-3.68276 -4.00903,-3.68276 -4.29009,0 -4.29009,4.00904 -4.29009,4.89419 l 0,0.2326 -3.91212,0 z m -9.37003,-7.225 c 0,-3.49538 -1.25666,-5.91825 -5.17521,-5.91825 -3.44696,0 -5.49509,1.86399 -5.49509,5.40783 0,9.36518 15.70663,3.77321 15.70663,15.93922 0,7.68856 -5.64366,9.88206 -10.34725,9.88206 -7.78544,0 -10.06942,-4.00904 -10.06942,-11.09349 l 4.10271,0 c 0,3.72798 0.2326,7.73701 6.24453,7.73701 3.26282,0 5.77934,-2.32918 5.77934,-5.87302 0,-9.41364 -15.70659,-3.96058 -15.70659,-16.17504 0,-3.07542 1.30511,-9.18104 9.73988,-9.18104 6.34147,0 9.2295,3.1691 9.32321,9.27472 l -4.10272,0 z m -37.42582,6.99206 c 0,-3.1691 -0.83993,-4.89418 -3.68276,-4.89418 -1.25666,0 -4.05426,0.32628 -4.05426,3.82166 0,2.93651 3.07543,3.49539 6.15085,4.52268 3.03019,1.02407 6.10562,2.09659 6.10562,7.03923 0,5.26569 -3.40171,7.8307 -8.0633,7.8307 -8.48002,0 -8.57694,-6.29299 -8.57694,-8.85799 l 3.91535,0 c 0,3.03019 0.83993,5.77934 4.66159,5.77934 1.25989,0 4.15118,-0.60734 4.15118,-4.14795 0,-3.35647 -3.07865,-4.05426 -6.10885,-5.08155 -3.0302,-1.02407 -6.15084,-1.90922 -6.15084,-7.08446 0,-4.66159 3.63429,-6.89708 7.9696,-6.89708 7.27183,0 7.55288,5.03309 7.59811,7.9696 l -3.91535,0 z m -20.97392,2.56307 0,-1.35034 c 0,-2.7976 -0.88515,-6.10885 -4.33531,-6.10885 -4.10272,0 -4.56791,5.03633 -4.56791,6.52558 l 0,0.93361 8.90322,0 z m -9.04213,3.07865 c 0,3.82167 0,9.59778 4.8005,9.59778 3.72798,0 4.24163,-3.91212 4.24163,-5.77611 l 3.91535,0 c 0,2.65546 -1.58617,8.85476 -8.38957,8.85476 -6.10562,0 -8.67062,-4.24163 -8.67062,-12.81857 0,-6.24453 1.21143,-13.47112 8.90321,-13.47112 7.64333,0 8.34435,6.66449 8.34435,12.0271 l 0,1.58616 -13.14485,0 z m -18.03903,9.32158 c 4.33531,0 5.0331,-4.10271 5.0331,-9.78837 0,-4.84896 -0.8367,-9.78837 -5.0331,-9.78837 -3.6343,0 -4.56791,3.82167 -4.56791,9.78837 0,5.96671 0.93361,9.78837 4.56791,9.78837 m 8.71585,2.70392 -3.72798,0 0,-3.07542 -0.0936,0 c -0.51365,1.86399 -2.70392,3.72798 -5.40784,3.72798 -5.91825,0 -8.15697,-5.26892 -8.15697,-13.14485 0,-5.22046 0.83992,-13.14484 7.87915,-13.14484 2.2355,0 4.61313,1.35357 5.49829,3.49538 l 0.0935,0 0,-11.13871 3.91535,0 0,33.28046 z m 330.59852,-70.25014 3.72798,0 0,2.93651 0.0938,0 c 1.02406,-2.28395 3.63753,-3.58907 6.06039,-3.58907 2.88805,0 4.61313,1.11775 5.4046,3.96058 1.12101,-2.19027 3.35648,-3.96058 5.92148,-3.96058 6.57081,0 6.57081,4.98787 6.57081,7.92438 l 0,17.71276 -3.91212,0 0,-17.24757 c 0,-1.90921 -0.14214,-5.03309 -3.3597,-5.03309 -1.81554,0 -4.65836,1.11774 -4.65836,5.03309 l 0,17.24757 -3.91535,0 0,-17.24757 c 0,-1.90921 -0.14214,-5.03309 -3.35971,-5.03309 -1.81553,0 -4.65836,1.11774 -4.65836,5.03309 l 0,17.24757 -3.91535,0 0,-24.98458 z m -7.36487,24.98359 -3.72798,0 0,-2.93651 -0.0936,0 c -1.02732,2.28396 -3.63753,3.58907 -6.06039,3.58907 -6.57404,0 -6.57404,-4.98787 -6.57404,-7.92438 l 0,-17.71275 3.91858,0 0,17.24756 c 0,1.90922 0.13904,5.0331 3.68273,5.0331 2.09335,0 4.93618,-1.3988 4.93618,-5.0331 l 0,-17.24756 3.91858,0 0,24.98457 z m -20.36723,0 -4.5679,0 -6.94555,-12.35014 -3.21433,3.91212 0,8.43802 -3.91535,0 0,-33.28046 3.91535,0 0,19.80934 0.0904,0 8.76431,-11.51345 4.56791,0 -7.5981,9.41363 8.90321,15.57094 z m -29.78313,-24.98294 3.91534,0 0,24.98457 -3.91534,0 0,-24.98457 z m 0,-8.29912 3.91534,0 0,4.47422 -3.91534,0 0,-4.47422 z m -23.21329,8.29847 3.72795,0 0,2.93651 0.0936,0 c 1.02729,-2.28395 3.63752,-3.58907 6.06039,-3.58907 6.57406,0 6.57406,4.98787 6.57406,7.92438 l 0,17.71276 -3.9186,0 0,-17.24757 c 0,-1.90921 -0.13878,-5.03309 -3.68273,-5.03309 -2.09335,0 -4.93621,1.3988 -4.93621,5.03309 l 0,17.24757 -3.91855,0 0,-24.98458 z m -11.1397,6.5e-4 3.91535,0 0,24.98457 -3.91535,0 0,-24.98457 z m 0,-8.29912 3.91535,0 0,4.47422 -3.91535,0 0,-4.47422 z m -11.37131,0 3.91858,0 0,33.28046 -3.91858,0 0,-33.28046 z m -4.14665,33.28206 -4.57114,0 -6.94231,-12.35014 -3.21756,3.91212 0,8.43802 -3.91212,0 0,-33.28046 3.91212,0 0,19.80934 0.0969,0 8.76108,-11.51345 4.56467,0 -7.59487,9.41363 8.90322,15.57094 z M 593.32,549.80858 c 0,-3.16911 -0.83667,-4.89419 -3.68272,-4.89419 -1.25669,0 -4.05429,0.32628 -4.05429,3.82167 0,2.93651 3.07542,3.49538 6.1541,4.52268 3.03017,1.02406 6.10559,2.09658 6.10559,7.03922 0,5.26569 -3.4017,7.8307 -8.06652,7.8307 -8.48002,0 -8.57371,-6.29299 -8.57371,-8.85799 l 3.91538,0 c 0,3.03019 0.83992,5.77934 4.65833,5.77934 1.26315,0 4.1512,-0.60733 4.1512,-4.14795 0,-3.35647 -3.07542,-4.05426 -6.10564,-5.08155 -3.03017,-1.02406 -6.15405,-1.90922 -6.15405,-7.08445 0,-4.6616 3.6343,-6.89709 7.96961,-6.89709 7.27502,0 7.55285,5.0331 7.5981,7.96961 l -3.91538,0 z m -24.42182,-14.58921 3.91537,0 0,7.27182 4.33529,0 0,3.07542 -4.33529,0 0,16.0329 c 0,2.00613 0.51365,2.80083 2.56178,2.80083 0.83993,0 1.30512,-0.0969 1.72508,-0.14214 l 0,3.21757 c -0.51365,0.0905 -1.53771,0.27782 -3.16911,0.27782 -4.05749,0 -5.03309,-1.67985 -5.03309,-4.93941 l 0,-17.24757 -3.6343,0 0,-3.07542 3.6343,0 0,-7.27182 z m -13.51602,-2.0058 3.6343,0 0,4.70682 -3.6343,0 0,-4.70682 z m 1.72508,20.64927 c -1.44725,1.53771 -4.89741,1.86722 -6.66772,2.93974 -1.25666,0.78824 -1.91245,1.7703 -1.91245,3.96057 0,2.51655 0.88839,4.28686 3.54385,4.28686 2.565,0 5.03632,-2.19027 5.03632,-4.75205 l 0,-6.43512 z m -9.27472,-20.64927 3.6343,0 0,4.70682 -3.6343,0 0,-4.70682 z m -2.80083,16.8276 c 0,-5.68565 2.42609,-8.2022 8.3928,-8.2022 7.59487,0 7.59487,4.56791 7.59487,7.17491 l 0,13.93954 c 0,1.02407 0,2.0029 1.21466,2.0029 0.51365,0 0.74625,-0.0905 0.93038,-0.23259 l 0,2.7976 c -0.27782,0.0452 -1.30511,0.23259 -2.28395,0.23259 -1.48925,0 -3.35324,0 -3.54384,-3.21433 l -0.0905,0 c -1.25989,2.2355 -3.68275,3.58907 -6.01193,3.58907 -4.66159,0 -6.80663,-2.7976 -6.80663,-7.27505 0,-3.49216 1.48925,-5.91825 4.70681,-6.89709 l 5.26893,-1.58617 c 2.84282,-0.88515 2.84282,-1.67662 2.84282,-3.77321 0,-2.33241 -1.3988,-3.68275 -4.00903,-3.68275 -4.28685,0 -4.28685,4.00903 -4.28685,4.89419 l 0,0.23259 -3.91858,0 z m -12.16244,-14.8218 3.91534,0 0,7.27182 4.33532,0 0,3.07542 -4.33532,0 0,16.0329 c 0,2.00613 0.51365,2.80083 2.56178,2.80083 0.83993,0 1.30512,-0.0969 1.72508,-0.14214 l 0,3.21757 c -0.51365,0.0905 -1.53771,0.27782 -3.16911,0.27782 -4.05749,0 -5.03309,-1.67985 -5.03309,-4.93941 l 0,-17.24757 -3.6343,0 0,-3.07542 3.6343,0 0,-7.27182 z m -12.30203,7.27216 3.91535,0 0,24.98457 -3.91535,0 0,-24.98457 z m 0,-8.29912 3.91535,0 0,4.47422 -3.91535,0 0,-4.47422 z m -9.41686,15.61617 c 0,-3.16911 -0.83993,-4.89419 -3.68276,-4.89419 -1.25666,0 -4.05426,0.32628 -4.05426,3.82167 0,2.93651 3.07542,3.49538 6.15085,4.52268 3.03019,1.02406 6.10561,2.09658 6.10561,7.03922 0,5.26569 -3.4017,7.8307 -8.06329,7.8307 -8.48325,0 -8.57694,-6.29299 -8.57694,-8.85799 l 3.91858,0 c 0,3.03019 0.8367,5.77934 4.65836,5.77934 1.25989,0 4.15118,-0.60733 4.15118,-4.14795 0,-3.35647 -3.07866,-4.05426 -6.10885,-5.08155 -3.0302,-1.02406 -6.15085,-1.90922 -6.15085,-7.08445 0,-4.6616 3.6343,-6.89709 7.96961,-6.89709 7.27182,0 7.55288,5.0331 7.5981,7.96961 l -3.91534,0 z m -26.38273,-7.3177 3.91857,0 0,3.72798 0.0905,0 c 1.11775,-2.37764 2.61023,-4.38054 5.4046,-4.38054 0.7947,0 1.35357,0.0936 1.72831,0.28105 l 0,3.82167 c -0.37474,-0.0483 -0.83993,-0.18737 -2.09659,-0.18737 -1.95767,0 -5.12678,1.77031 -5.12678,5.91825 l 0,15.80354 -3.91857,0 0,-24.98458 z m -9.32027,9.88076 0,-1.35034 c 0,-2.7976 -0.88515,-6.10562 -4.33531,-6.10562 -4.10271,0 -4.5679,5.0331 -4.5679,6.52235 l 0,0.93361 8.90321,0 z m -9.04212,3.07866 c 0,3.82166 0,9.59777 4.80373,9.59777 3.72798,0 4.23839,-3.91212 4.23839,-5.77611 l 3.91858,0 c 0,2.65546 -1.58617,8.85476 -8.3928,8.85476 -6.10562,0 -8.67062,-4.24163 -8.67062,-12.81533 0,-6.24776 1.21143,-13.47436 8.90645,-13.47436 7.6401,0 8.34111,6.66449 8.34111,12.0271 l 0,1.58617 -13.14484,0 z M 441.19,542.49088 l 4.28686,0 4.66159,20.04516 0.0935,0 4.66159,-20.04516 4.28686,0 -6.75818,24.98458 -4.47422,0 -6.75818,-24.98458 z m -9.04117,6.5e-4 3.91535,0 0,24.98457 -3.91535,0 0,-24.98457 z m 0,-8.29912 3.91535,0 0,4.47422 -3.91535,0 0,-4.47422 z m -23.67881,8.29847 3.72798,0 0,2.93651 0.0938,0 c 1.02406,-2.28395 3.6343,-3.58907 6.06039,-3.58907 6.57081,0 6.57081,4.98787 6.57081,7.92438 l 0,17.71276 -3.91535,0 0,-17.24757 c 0,-1.90921 -0.13904,-5.03309 -3.68275,-5.03309 -2.09659,0 -4.93942,1.3988 -4.93942,5.03309 l 0,17.24757 -3.91534,0 0,-24.98458 z m -26.28807,-8.29687 4.10272,0 0,23.39841 c 0,4.89418 1.58294,7.17814 5.6372,7.17814 4.38377,0 5.68888,-2.51655 5.68888,-7.17814 l 0,-23.39841 4.09949,0 0,23.39841 c 0,6.38667 -3.26279,10.53461 -9.78837,10.53461 -6.66449,0 -9.73992,-3.68275 -9.73992,-10.53461 l 0,-23.39841 z m 68.19039,-22.14562 0,1.1662 c 0,2.51655 0.69778,4.42577 3.4017,4.42577 2.75237,0 3.54384,-2.04813 3.54384,-3.96058 0,-7.17814 -14.31105,-3.1691 -14.31105,-15.61617 0,-5.31414 2.84283,-9.78837 10.90935,-9.78837 7.83069,0 10.62506,3.96058 10.62506,9.09059 l 0,0.79147 -7.54964,0 c 0,-1.58617 -0.18737,-2.74914 -0.65256,-3.49539 -0.46842,-0.7947 -1.21466,-1.1662 -2.37764,-1.1662 -1.95767,0 -3.12387,1.1662 -3.12387,3.58907 0,6.94554 14.31105,3.45016 14.31105,15.1962 0,7.54965 -4.1964,10.57984 -11.37454,10.57984 -5.68566,0 -10.95135,-1.72508 -10.95135,-8.66739 l 0,-2.14504 7.54965,0 z m -37.70786,-23.11961 7.8307,0 0,13.14485 0.0935,0 7.31705,-13.14485 8.43803,0 -8.71908,14.35628 9.7916,18.92419 -8.80953,0 -6.01517,-12.53752 -2.09658,3.21433 0,9.32319 -7.8307,0 0,-33.28047 z m -8.90224,22.28002 c 0,6.52558 -1.86399,11.65236 -10.95457,11.65236 -9.08736,0 -10.95135,-5.12678 -10.95135,-11.65236 l 0,-22.28066 7.8307,0 0,24.56461 c 0,2.61023 1.02406,4.14794 3.12065,4.14794 2.09981,0 3.12388,-1.53771 3.12388,-4.14794 l 0,-24.56461 7.83069,0 0,22.28066 z"
       id="path546"
       style="fill:#00457d;fill-opacity:1;fill-rule:nonzero;stroke:none" />
  </g>
</svg>
